<?xml version="1.0" encoding="UTF-8"?><svg id="Layer_1" xmlns="http://www.w3.org/2000/svg" viewBox="0 0 228.02 356.14"><defs><style>.cls-1{fill:#99ecff;}.cls-2{fill:#00b1e8;}.cls-3{fill:#333;}.cls-4{fill:#4dddff;}.cls-5{fill:#bb8057;}.cls-6{fill:#a26840;}</style></defs><polygon class="cls-1" points="85.86 349.57 57.17 337.88 32.88 317.81 17.72 294.72 7.64 271.51 5.51 251.28 6.56 225.17 13.93 200.94 24.55 181.82 42.43 162.89 63.79 148.3 61.53 105.71 48.81 99.84 44.65 71.08 50.26 60.72 58.81 52.52 51.18 29.08 65.59 9.92 101.64 5.55 131.15 9.93 152.62 32.32 148.35 55.95 160.39 66.12 165.58 91.26 153.12 109.71 153.9 136.39 160.09 145.9 182.25 157.58 200.26 174.53 211.57 191.63 219.38 213.74 222.52 233.67 222.52 253.85 215.15 280.18 202.56 303.26 182.35 326.42 156.1 341.25 119.63 350.62 85.86 349.57"/><path class="cls-3" d="m101.57,11.1l26.91,4,18.23,19-4.34,24,13.02,11,4.34,21-12.15,18,.87,30,7.81,12,22.77,12,17,16,10.58,16,7.42,21,3,19v19l-7,25-12,22-19.2,22-24.8,14-35,9-32-1-27-11-23-19-14.45-22-9.55-22-2-19,1-25,7-23,10-18,17-18,23.43-16-2.6-49-13.02-6-3.47-24,4.34-8,10.42-10-7.81-24,11.29-15,32.99-4m.15-11.1l-1.47.18-32.99,4-4.65.56-2.82,3.74-11.29,15-3.44,4.57,1.77,5.44,5.68,17.44-5.44,5.22-1.23,1.19-.82,1.5-4.34,8-1.74,3.21.52,3.61,3.47,24,.86,5.91,5.43,2.5,6.99,3.22,1.92,36.19-18.32,12.51-.98.67-.81.86-17,18-.95,1-.67,1.21-10,18-.57,1.02-.34,1.12-7,23-.41,1.35-.06,1.41L.03,250.66l-.03.8.08.79,2,19,.18,1.68.67,1.55,9.55,22,.38.87.52.79,14.45,22,.91,1.39,1.28,1.06,23,19,1.3,1.07,1.56.63,27,11,1.83.75,1.98.06,32,1,1.57.05,1.52-.39,35-9,1.4-.36,1.26-.71,24.8-14,1.64-.93,1.24-1.42,19.2-22,.79-.91.58-1.06,12-22,.6-1.1.34-1.2,7-25,.41-1.46v-21.37l-.13-.85-3-19-.16-1-.34-.95-7.42-21-.45-1.28-.75-1.13-10.58-16-.71-1.07-.93-.88-17-16-1.09-1.02-1.32-.7-20.24-10.67-4.57-7.01-.68-23.37,10.17-15.07,2.59-3.84-.94-4.54-4.34-21-.77-3.72-2.9-2.45-8.16-6.9,3.21-17.74,1-5.52-3.89-4.05-18.23-19-2.6-2.71-3.72-.55L103.19.22l-1.47-.22h0Z"/><polygon class="cls-4" points="78.13 109.1 107.64 116.1 137.51 112.6 140.63 145.1 146.71 163.1 175.36 180.1 195.02 200.1 162.33 218.1 115.46 221.1 59.9 230.1 30.38 215.1 52.09 185.1 77.26 162.1 80.73 139.1 78.13 109.1"/><polygon class="cls-2" points="115.46 178.1 164.07 187.1 195.78 199.9 203.77 230.4 203.02 261.1 191.02 290.1 167.02 316.1 133.02 328.1 97.02 331.1 72.02 322.1 50.02 309.1 33.02 284.1 24.02 246.1 30.38 215.1 52.96 194.1 115.46 178.1"/><polygon class="cls-6" points="57.3 30.1 67.71 63.1 79.87 73.1 106.78 79.1 131.95 77.1 140.63 68.1 146.71 34.1 131.95 47.1 104.17 50.1 72.92 39.1 57.3 30.1"/><polygon class="cls-5" points="102 10.7 128.48 15.1 146.71 34.1 130.21 57.1 92.02 57.1 57.3 30.1 68.58 15.1 102 10.7"/><polygon class="cls-4" points="133.69 192.1 122.4 204.51 124.05 211.91 135.42 217.1 149.31 213.39 154.52 207.38 147.58 195.8 133.69 192.1"/><polygon class="cls-4" points="82.47 210.1 69.45 211.1 65.85 221.1 72.05 226.1 82.47 223.1 87.68 220.1 82.47 210.1"/></svg>