<?xml version="1.0" encoding="UTF-8"?><svg id="Layer_2" xmlns="http://www.w3.org/2000/svg" viewBox="0 0 285.78 419.01"><defs><style>.cls-1{fill:#606868;}.cls-2{fill:#333;}.cls-3{fill:#485151;}.cls-4{fill:#2d2d2d;}.cls-5{fill:#959ca0;}.cls-6{fill:#818789;}</style></defs><polygon class="cls-1" points="70.68 354.16 13 249.36 5.6 152.4 72.75 18.92 108.09 5.67 183.12 18.17 260.72 93.32 280.28 124.78 280.28 201.23 241.86 323.99 207.03 377.9 130.66 412.46 70.68 354.16"/><path class="cls-2" d="m108.64,11.34l71.88,11.98,75.88,73.48,18.37,29.55v74.04l-37.94,121.25-33.55,51.92-71.49,32.35-56.71-55.11-56.71-103.03-7.19-94.25L76.7,23.32l31.95-11.98m-1.1-11.34l-2.76,1.04-31.95,11.98-4.03,1.51-1.93,3.84L1.37,148.56l-1.37,2.73.23,3.05,7.19,94.25.18,2.38,1.15,2.09,56.71,103.03.79,1.44,1.18,1.15,56.71,55.11,5.37,5.22,6.83-3.09,71.49-32.35,2.95-1.33,1.76-2.72,33.55-51.92.81-1.26.45-1.43,37.94-121.25.5-1.6v-78.86l-1.66-2.67-18.37-29.55-.72-1.15-.97-.94L188.18,15.41l-2.46-2.38-3.38-.56L110.45.48l-2.91-.48h0Z"/><polygon class="cls-6" points="85.88 91.38 76.7 23.32 108.64 11.34 180.53 23.32 256.41 96.8 274.78 126.35 242.88 149.38 85.88 91.38"/><polygon class="cls-5" points="85.85 91.93 67.05 125.18 51.15 164.94 108.26 320.35 144.4 346.38 181.99 304.45 242.71 149.76 220.3 115.78 131.75 65.55 85.85 91.93"/><polygon class="cls-3" points="87.08 347.6 11.2 153.51 18.39 247.76 75.1 350.79 131.81 405.9 87.08 347.6"/><path class="cls-4" d="m172.15,217.13l-2.84-6.33-21.98-14.23v-43.95l4.96-4.25,2.13-.71,2.13,1.42,7.44,9.93h5.32v-4.25l-5.32-18.81-6.03-4.58-3.85,2.76-6.79,5.04.71-24.1-11.34-5.67-.71,36.86-24.81,28.36-1.42,3.54,1.42,2.84,9.22,12.05,6.38,5.67,9.22,5.67.71,28.36-24.1,9.22-3.54,7.09v13.47l29.07-13.47,1.42,35.45,6.38-3.54,4.25-8.51-1.42-29.78,12.05-8.51,9.22-9.93,2.13-7.09Zm-36.16-25.52l-12.76-11.34v-2.84l12.76-14.89v29.07Zm12.05,34.88v-16.45l10.63,4.96-10.63,11.48Z"/><polygon class="cls-3" points="163.91 324.61 144.4 346.38 131.81 405.9 203.29 373.55 236.84 321.64 181.99 304.45 163.91 324.61"/></svg>