<?xml version="1.0" encoding="UTF-8"?><svg id="Layer_8" xmlns="http://www.w3.org/2000/svg" viewBox="0 0 222.32 365.73"><defs><style>.cls-1{fill:#443700;}.cls-2{fill:#ad901d;}.cls-3{fill:#7a6101;}.cls-4{fill:#6d5800;}.cls-5{fill:#e2c23a;}.cls-6{fill:#fcdf45;}.cls-7{fill:#fde968;}.cls-8{fill:#fce947;}.cls-9{fill:#f4c43d;}</style></defs><polygon class="cls-9" points="25.51 345.86 6.12 304.54 18.95 156.92 30.24 96.47 64.37 24.14 85.23 6 130.84 6 159.3 27.69 195.45 85.2 216.28 263.87 209.57 319.22 173.8 348.89 40.17 359.54 25.51 345.86"/><path class="cls-1" d="m128.82,12l25.98,19.8,34.85,55.44,20.59,176.62-6.34,52.27-32.47,26.93-129.1,10.3-11.88-11.09-18.22-38.81,12.67-145.73,11.09-59.4L69.26,27.84l18.22-15.84h41.34m4.05-12h-49.88l-3.39,2.94-18.22,15.84-1.9,1.65-1.08,2.28L25.14,93.21l-.66,1.4-.28,1.52-11.09,59.4-.11.58-.05.59L.28,302.42l-.28,3.22,1.37,2.92,18.22,38.81.98,2.09,1.69,1.58,11.88,11.09,3.87,3.61,5.27-.42,129.1-10.3,3.78-.3,2.92-2.42,32.47-26.93,3.68-3.05.57-4.74,6.34-52.27.17-1.42-.17-1.42-20.59-176.62-.31-2.7-1.45-2.3-34.85-55.44-1.16-1.84-1.73-1.32-25.98-19.8-3.22-2.46h0Z"/><polygon class="cls-7" points="79.55 72.98 91.43 72.98 135.79 40.51 154.79 31.8 128.82 12 87.47 12 69.26 27.84 79.55 72.98"/><polygon class="cls-8" points="154.79 294.27 173.01 202.08 135.79 40.51 91.43 72.98 79.55 72.98 45.5 190.99 69.26 284.45 154.79 294.27"/><polygon class="cls-5" points="189.64 87.24 205.48 219.5 173.01 202.08 135.79 40.51 154.79 31.8 189.64 87.24"/><polygon class="cls-6" points="35.99 98.33 69.26 27.84 79.55 72.98 45.5 190.99 69.26 284.45 30.45 342.26 12.23 303.46 24.91 157.73 35.99 98.33"/><polygon class="cls-3" points="171.43 343.06 203.9 316.13 210.23 263.86 205.48 219.5 173.01 202.08 154.79 294.27 69.26 284.45 30.45 342.26 42.33 353.35 171.43 343.06"/><polygon class="cls-2" points="45.5 190.99 22.01 190.99 12.23 303.46 30.45 342.26 69.26 284.45 45.5 190.99"/><path class="cls-4" d="m136.99,189.18l-2.44-5.46-18.94-12.26v-37.88l4.28-3.67,1.83-.61,1.83,1.22,6.42,8.55h4.58v-3.67l-4.58-16.21-5.19-3.95-3.32,2.38-5.85,4.34.61-20.77-9.78-4.89-.61,31.77-21.39,24.44-1.22,3.06,1.22,2.44,7.94,10.39,5.5,4.89,7.94,4.89.61,24.44-20.77,7.94-3.06,6.11v11.61l25.05-11.61,1.22,30.55,5.5-3.06,3.67-7.33-1.22-25.66,10.39-7.33,7.94-8.55,1.83-6.11Zm-31.16-22l-11-9.78v-2.44l11-12.83v25.05Zm10.39,30.06v-14.18l9.17,4.28-9.17,9.9Z"/></svg>