<?xml version="1.0" encoding="UTF-8"?><svg id="Layer_6" xmlns="http://www.w3.org/2000/svg" viewBox="0 0 213.13 412.51"><defs><style>.cls-1{fill:#ff66a9;}.cls-2{fill:#741341;}.cls-3{fill:#9b1f57;}.cls-4{fill:#ff4592;}.cls-5{fill:#4f0734;}</style></defs><path class="cls-5" d="m126.16,14.94l48.64,78.63,27.3,72.41-1.7,127.54-10.55,73.33-13.73,31.42-41.39,3.14-61.91-14.9-32.44-15.18L11.27,212.81,53.55,57.69,126.16,14.94m3.69-14.94l-9.27,5.46L47.97,48.21l-3.86,2.27-1.18,4.32L.66,209.92l-.66,2.42.45,2.46,29.1,158.52,1.02,5.58,5.13,2.4,32.44,15.18,1.01.47,1.08.26,61.91,14.9,1.68.4,1.72-.13,41.39-3.14,6.6-.5,2.65-6.06,13.73-31.42.6-1.36.21-1.47,10.55-73.33.1-.71v-.71s1.71-127.54,1.71-127.54l.03-2.08-.73-1.95-27.3-72.41-.38-1-.56-.91L135.51,9.15l-5.66-9.15h0Z"/><polygon class="cls-4" points="126.16 14.94 174.8 93.57 150.21 244.41 133.19 257.46 62.7 213.32 44.55 151.48 63.57 64.77 126.16 14.94"/><polygon class="cls-1" points="126.16 14.94 63.57 64.77 44.55 151.48 11.27 212.81 53.55 57.69 126.16 14.94"/><polygon class="cls-3" points="174.8 93.57 202.1 165.99 200.4 293.52 150.21 244.41 174.8 93.57"/><polygon class="cls-3" points="62.51 213.33 73.31 358.05 100.64 365.78 133 257.48 62.51 213.33"/><path class="cls-2" d="m136.49,153.42l-1.97-5.43-18.05-13.5,3.46-36.03,4.66-3.07,1.91-.4,1.74,1.34,5.71,8.76,4.64.45.34-3.49-3.16-15.86-4.89-4.26-3.57,1.94-6.31,3.56,2.52-19.7-9.45-5.6-3.52,30.16-23.87,21.16-1.52,2.79,1.01,2.44,7.09,10.65,5.12,5.18,7.59,5.42-1.62,23.3-21.75,5.53-3.65,5.51-1.06,11.04,26.41-8.6-1.56,29.17,5.84-2.37,4.38-6.62,1.11-24.53,11.18-5.96,8.82-7.36,2.41-5.63Zm-29.52-23.95l-10.24-10.37.22-2.32,12.3-11.13-2.29,23.83Zm7.76,29.6l1.3-13.48,8.88,4.96-10.18,8.52Z"/><polygon class="cls-2" points="200.4 293.52 189.85 366.85 176.11 398.27 134.73 401.42 72.81 386.51 40.37 371.33 11.27 212.81 44.55 151.48 62.7 213.32 73.5 358.04 100.64 365.78 133.19 257.46 150.21 244.41 200.4 293.52"/></svg>