<?xml version="1.0" encoding="UTF-8"?><svg id="Layer_11" xmlns="http://www.w3.org/2000/svg" viewBox="0 0 295.5 274"><defs><style>.cls-1{stroke:#6c533d;stroke-linejoin:round;stroke-width:20px;}.cls-1,.cls-2{fill:none;}.cls-3{fill:#cb8151;}.cls-4{fill:#9b855a;}.cls-5{fill:#459b5d;}.cls-2{stroke:#cb8151;stroke-miterlimit:10;stroke-width:4px;}.cls-6{fill:#f0e4cd;}.cls-7{fill:#c3b18d;}</style></defs><polygon class="cls-1" points="25 51 60 35 123 18 167 12 176 13 183 25 257 188 254 192 107 231 101.73 231 27 65.53 22 53 25 51"/><path class="cls-1" d="m92,261s157-37,159-39,6-34,6-34l-3,4-148,39-3.27-1-10.73,31Z"/><polygon class="cls-1" points="12 88 23 52 102.73 230 92 261 85 258 12 93 12 88"/><path class="cls-1" d="m114.81,54.17c2.79-.95,10.24,2.15,13.03,6.65s4.65,15.21,6.52,17.11,11.17,3.8,12.1,3.8-.93-8.56,4.65-12.36,21.41-5.7,26.06-3.8,8.38,2.85,7.45,3.8-3.72,5.7-10.24,6.65-15.02,4.75-15.89,5.7-3.66,2.85-3.66,3.8,10.24,10.46,14.89,18.06,7.45,16.16,7.45,20.91,0,13.31.93,14.26,14.89,3.8,14.89,7.61c0,4.25-4.5,10.46-7.45,10.46-3.72,0-7.88-3.8-9.06-4.28s-5.83,16.64-6.76,16.64-19.55-9.51-21.41-9.51c-.93,0-2.11,13.31-5.59,13.31s-8.38-1.9-11.17-8.56c-2.79-6.65,5.03-11.41,4.84-11.88s-5.77-4.28-13.22-14.73c-7.45-10.46-10.24-16.16-11.17-25.67s.93-12.1,0-13.18-10.24-2.98-20.48-.13-18.62,1.9-19.55.95,3.72-9.51,12.1-12.36,15.82-4.75,21.41-1.9,8.38,4.75,9.31,4.75,4.65-6.65,5.59-8.56-4.65-6.65-7.45-12.36-.93-14.26,1.86-15.21Z"/><polygon class="cls-1" points="43 61 46 55 90 40 126 30 170 24 175 27.2 193 66 216 117 242 176 237 182 118 214 110 210 43 61"/><polygon class="cls-6" points="25 51 60 35 123 18 167 12 176 13 183 25 257 188 254 192 107 231 101.73 231 27 65.53 22 53 25 51"/><path class="cls-4" d="m92,261s157-37,159-39,6-34,6-34l-3,4-148,39-3.27-1-10.73,31Z"/><polygon class="cls-7" points="12 88 23 52 102.73 230 92 261 85 258 12 93 12 88"/><path class="cls-3" d="m114.81,54.17c2.79-.95,10.24,2.15,13.03,6.65s4.65,15.21,6.52,17.11,11.17,3.8,12.1,3.8-.93-8.56,4.65-12.36,21.41-5.7,26.06-3.8,8.38,2.85,7.45,3.8-3.72,5.7-10.24,6.65-15.02,4.75-15.89,5.7-3.66,2.85-3.66,3.8,10.24,10.46,14.89,18.06,7.45,16.16,7.45,20.91,0,13.31.93,14.26,14.89,3.8,14.89,7.61c0,4.25-4.5,10.46-7.45,10.46-3.72,0-7.88-3.8-9.06-4.28s-5.83,16.64-6.76,16.64-19.55-9.51-21.41-9.51c-.93,0-2.11,13.31-5.59,13.31s-8.38-1.9-11.17-8.56c-2.79-6.65,5.03-11.41,4.84-11.88s-5.77-4.28-13.22-14.73c-7.45-10.46-10.24-16.16-11.17-25.67s.93-12.1,0-13.18-10.24-2.98-20.48-.13-18.62,1.9-19.55.95,3.72-9.51,12.1-12.36,15.82-4.75,21.41-1.9,8.38,4.75,9.31,4.75,4.65-6.65,5.59-8.56-4.65-6.65-7.45-12.36-.93-14.26,1.86-15.21Z"/><polygon class="cls-2" points="43 61 46 55 90 40 126 30 170 24 175 27.2 193 66 216 117 242 176 237 182 118 214 110 210 43 61"/><path class="cls-6" d="m133.43,92.86c3.73-1.49,14.03,2.35,18.63,7.45,6.71,7.45,11.18,16.39,11.92,29.81.25,4.53-2.98,17.88-2.98,17.88,0,0-14.9-5.96-22.36-13.41-7.45-7.45-11.92-15.65-12.67-25.34-.57-7.47,3.42-14.78,7.45-16.39Z"/><circle class="cls-5" cx="242" cy="205" r="51"/></svg>