<?xml version="1.0" encoding="UTF-8"?><svg id="Layer_11_copy" xmlns="http://www.w3.org/2000/svg" viewBox="0 0 297.5 275.5"><defs><style>.cls-1{fill:#a0897b;}.cls-2{fill:#b0aba0;}.cls-3{fill:#847d70;}.cls-4{fill:#e4e0d9;}.cls-5{stroke:#5b544d;stroke-linejoin:round;stroke-width:25px;}.cls-5,.cls-6{fill:none;}.cls-6{stroke:#a0897b;stroke-miterlimit:10;stroke-width:4px;}.cls-7{fill:#877160;}</style></defs><polygon class="cls-5" points="271 52.5 236 36.5 173 19.5 129 13.5 120 14.5 113 26.5 39 189.5 42 193.5 189 232.5 194.27 232.5 269 67.03 274 54.5 271 52.5"/><path class="cls-5" d="m204,262.5s-157-37-159-39-6-34-6-34l3,4,148,39,3.27-1,10.73,31Z"/><polygon class="cls-5" points="284 89.5 274 54.5 193.27 231.5 204 262.5 211 259.5 284 94.5 284 89.5"/><path class="cls-5" d="m181.19,55.67c-2.79-.95-10.24,2.15-13.03,6.65s-4.65,15.21-6.52,17.11-11.17,3.8-12.1,3.8.93-8.56-4.65-12.36c-5.59-3.8-21.41-5.7-26.06-3.8s-8.38,2.85-7.45,3.8,3.72,5.7,10.24,6.65,15.02,4.75,15.89,5.7,3.66,2.85,3.66,3.8-10.24,10.46-14.89,18.06c-4.65,7.61-7.45,16.16-7.45,20.91s0,13.31-.93,14.26-14.89,3.8-14.89,7.61c0,4.25,4.5,10.46,7.45,10.46,3.72,0,7.88-3.8,9.06-4.28s5.83,16.64,6.76,16.64,19.55-9.51,21.41-9.51c.93,0,2.11,13.31,5.59,13.31s8.38-1.9,11.17-8.56c2.79-6.65-5.03-11.41-4.84-11.88s5.77-4.28,13.22-14.73c7.45-10.46,10.24-16.16,11.17-25.67.93-9.51-.93-12.1,0-13.18s10.24-2.98,20.48-.13,18.62,1.9,19.55.95-3.72-9.51-12.1-12.36-15.82-4.75-21.41-1.9-8.38,4.75-9.31,4.75-4.65-6.65-5.59-8.56,4.65-6.65,7.45-12.36.93-14.26-1.86-15.21Z"/><polygon class="cls-5" points="253 62.5 250 56.5 206 41.5 170 31.5 126 25.5 121 28.7 103 67.5 80 118.5 54 177.5 59 183.5 178 215.5 186 211.5 253 62.5"/><polygon class="cls-4" points="271 52.5 236 36.5 173 19.5 129 13.5 120 14.5 113 26.5 39 189.5 42 193.5 189 232.5 194.27 232.5 269 67.03 274 54.5 271 52.5"/><path class="cls-3" d="m204,262.5s-157-37-159-39-6-34-6-34l3,4,148,39,3.27-1,10.73,31Z"/><polygon class="cls-2" points="284 89.5 274 54.5 193.27 231.5 204 262.5 211 259.5 284 94.5 284 89.5"/><path class="cls-1" d="m181.19,55.67c-2.79-.95-10.24,2.15-13.03,6.65s-4.65,15.21-6.52,17.11-11.17,3.8-12.1,3.8.93-8.56-4.65-12.36c-5.59-3.8-21.41-5.7-26.06-3.8s-8.38,2.85-7.45,3.8,3.72,5.7,10.24,6.65,15.02,4.75,15.89,5.7,3.66,2.85,3.66,3.8-10.24,10.46-14.89,18.06c-4.65,7.61-7.45,16.16-7.45,20.91s0,13.31-.93,14.26-14.89,3.8-14.89,7.61c0,4.25,4.5,10.46,7.45,10.46,3.72,0,7.88-3.8,9.06-4.28s5.83,16.64,6.76,16.64,19.55-9.51,21.41-9.51c.93,0,2.11,13.31,5.59,13.31s8.38-1.9,11.17-8.56c2.79-6.65-5.03-11.41-4.84-11.88s5.77-4.28,13.22-14.73c7.45-10.46,10.24-16.16,11.17-25.67.93-9.51-.93-12.1,0-13.18s10.24-2.98,20.48-.13,18.62,1.9,19.55.95-3.72-9.51-12.1-12.36-15.82-4.75-21.41-1.9-8.38,4.75-9.31,4.75-4.65-6.65-5.59-8.56,4.65-6.65,7.45-12.36.93-14.26-1.86-15.21Z"/><polygon class="cls-6" points="253 62.5 250 56.5 206 41.5 170 31.5 126 25.5 121 28.7 103 67.5 80 118.5 54 177.5 59 183.5 178 215.5 186 211.5 253 62.5"/><path class="cls-4" d="m162.57,94.36c-3.73-1.49-14.03,2.35-18.63,7.45-6.71,7.45-11.18,16.39-11.92,29.81-.25,4.53,2.98,17.88,2.98,17.88,0,0,14.9-5.96,22.36-13.41,7.45-7.45,11.92-15.65,12.67-25.34.57-7.47-3.42-14.78-7.45-16.39Z"/><circle class="cls-7" cx="53" cy="206.5" r="51"/></svg>