<?xml version="1.0" encoding="UTF-8"?><svg id="Layer_2" xmlns="http://www.w3.org/2000/svg" viewBox="0 0 285.78 419.01"><defs><style>.cls-1{fill:#606868;}.cls-2{fill:#333;}.cls-3{fill:#475151;}.cls-4{fill:#2d2d2d;}.cls-5{fill:#959ca0;}.cls-6{fill:#818789;}</style></defs><polygon class="cls-1" points="70.68 354.16 13 249.36 5.6 152.4 72.75 18.92 108.09 5.67 183.12 18.17 260.72 93.32 280.28 124.78 280.28 201.23 241.86 323.99 207.03 377.9 130.66 412.46 70.68 354.16"/><path class="cls-2" d="m108.64,11.34l71.88,11.98,75.88,73.48,18.37,29.55v74.04l-37.94,121.25-33.55,51.92-71.49,32.35-56.71-55.11-56.71-103.03-7.19-94.25L76.7,23.32l31.95-11.98m-1.1-11.34l-2.76,1.04-31.95,11.98-4.03,1.51-1.93,3.84L1.37,148.56l-1.37,2.73.23,3.05,7.19,94.25.18,2.38,1.15,2.09,56.71,103.03.79,1.44,1.18,1.15,56.71,55.11,5.37,5.22,6.83-3.09,71.49-32.35,2.95-1.33,1.76-2.72,33.55-51.92.81-1.26.45-1.43,37.94-121.25.5-1.6v-78.86l-1.66-2.67-18.37-29.55-.72-1.15-.97-.94L188.18,15.41l-2.46-2.38-3.38-.56L110.45.48l-2.91-.48h0Z"/><polygon class="cls-6" points="81.09 79.63 76.7 23.32 108.64 11.34 180.53 23.32 256.41 96.8 274.78 126.35 254.41 143.52 81.09 79.63"/><polygon class="cls-5" points="81.49 79.23 60.72 115.97 43.15 159.9 106.25 331.62 146.18 360.37 187.72 314.05 254.81 143.12 230.05 105.58 132.21 50.07 81.49 79.23"/><polygon class="cls-3" points="87.08 347.6 11.2 153.51 18.39 247.76 75.1 350.79 131.81 405.9 87.08 347.6"/><path class="cls-4" d="m179.88,221.61l-3.36-7.51-26.06-16.87v-52.13l5.89-5.04,2.52-.84,2.52,1.68,8.83,11.77h6.31v-5.04l-6.31-22.31-7.15-5.44-4.56,3.28-8.05,5.97.84-28.59-13.45-6.73-.84,43.72-29.43,33.63-1.68,4.2,1.68,3.36,10.93,14.29,7.57,6.73,10.93,6.73.84,33.63-28.59,10.93-4.2,8.41v15.97l34.47-15.97,1.68,42.04,7.57-4.2,5.04-10.09-1.68-35.31,14.29-10.09,10.93-11.77,2.52-8.41Zm-42.88-30.27l-15.13-13.45v-3.36l15.13-17.66v34.47Zm14.29,41.37v-19.51l12.61,5.89-12.61,13.62Z"/></svg>